<svg width="1305" height="468" viewBox="0 0 1305 468" fill="none" xmlns="http://www.w3.org/2000/svg">
<path d="M134 230L114 218.453V241.547L134 230ZM52 232H116V228H52V232Z" fill="#2B7A78"/>
<path d="M467.5 63V61H466.289L465.728 62.0732L467.5 63ZM533 63L513 51.453V74.547L533 63ZM439 117.5L437.228 116.573L437 117.009V117.5H439ZM467.5 65H515V61H467.5V65ZM441 228V117.5H437V228H441ZM440.772 118.427L469.272 63.9268L465.728 62.0732L437.228 116.573L440.772 118.427Z" fill="#2B7A78"/>
<path d="M28.7652 208.69L29.6421 127.197L93.5086 62.0086" stroke="#2B7A78" stroke-width="4"/>
<path d="M405 122.5H407V121.589L406.313 120.991L405 122.5ZM405 215L416.547 195H393.453L405 215ZM335.5 62L336.813 60.4915L336.249 60H335.5V62ZM403 122.5V197H407V122.5H403ZM92 64H335.5V60H92V64ZM334.187 63.5085L403.687 124.009L406.313 120.991L336.813 60.4915L334.187 63.5085Z" fill="#2B7A78"/>
<path d="M30 355L30 249" stroke="#2B7A78" stroke-width="4"/>
<path d="M131 394L116.75 375.827L108.136 397.255L131 394ZM115.045 385.431L29.7459 351.144L28.2541 354.856L113.553 389.142L115.045 385.431Z" fill="#2B7A78"/>
<path d="M666 93.5L677.547 73.5H654.453L666 93.5ZM664 61V75.5H668V61H664Z" fill="#2B7A78"/>
<path d="M154 340V338H152V340H154ZM238 340L218 328.453V351.547L238 340ZM156 377V340H152V377H156ZM154 342H220V338H154V342Z" fill="#2B7A78"/>
<path d="M154 439V441H152V439H154ZM238 439L218 450.547V427.453L238 439ZM156 340V439H152V340H156ZM154 437H220V441H154V437Z" fill="#2B7A78"/>
<path d="M397 230L377.095 218.29L376.906 241.383L397 230ZM151.984 230L378.984 231.853L379.017 227.853L152.016 226L151.984 230Z" fill="#2B7A78"/>
<path d="M1101.5 117.5L1051.5 155L1051.5 208.5L1051.5 307.5L1100 353" stroke="#2B7A78" stroke-width="4"/>
<path d="M1032 348V350H1034V348H1032ZM1032 249L1020.45 269H1043.55L1032 249ZM998 350H1032V346H998V350ZM1034 348V267H1030V348H1034Z" fill="#2B7A78"/>
<path d="M754 229L734.036 217.392L733.965 240.486L754 229ZM427.994 230L735.994 230.945L736.006 226.945L428.006 226L427.994 230Z" fill="#2B7A78"/>
<path d="M418.244 390.118L419.62 391.57L420.249 390.974L420.244 390.108L418.244 390.118ZM417.495 249.862L406.055 269.924L429.149 269.8L417.495 249.862ZM420.244 390.108L419.591 267.851L415.591 267.873L416.244 390.129L420.244 390.108ZM416.869 388.666L365.13 437.686L367.881 440.589L419.62 391.57L416.869 388.666Z" fill="#2B7A78"/>
<path d="M368 438.985L269 438.5" stroke="#2B7A78" stroke-width="4"/>
<path d="M418 340L398 328.453V351.547L418 340ZM400 338H267V342H400V338Z" fill="#2B7A78"/>
<g filter="url(#filter0_d_3_58)">
<ellipse className="b1" cx="30" cy="228.5" rx="21" ry="20.5" fill="#DEF2F1"/>
</g>
<g filter="url(#filter1_d_3_58)" >
<ellipse className="b2" cx="259" cy="439.5" rx="21" ry="20.5" fill="#DEF2F1"/>
</g>
<g filter="url(#filter2_d_3_58)">
<ellipse cx="418" cy="228.5" rx="21" ry="20.5" fill="#DEF2F1"/>
</g>
<g filter="url(#filter3_d_3_58)">
<ellipse cx="775" cy="228.5" rx="21" ry="20.5" fill="#DEF2F1"/>
</g>
<g filter="url(#filter4_d_3_58)">
<ellipse cx="897" cy="228.5" rx="21" ry="20.5" fill="#DEF2F1"/>
</g>
<g filter="url(#filter5_d_3_58)">
<ellipse cx="1053" cy="228.5" rx="21" ry="20.5" fill="#DEF2F1"/>
</g>
<g filter="url(#filter6_d_3_58)">
<ellipse cx="1175" cy="119.5" rx="21" ry="20.5" fill="#DEF2F1"/>
</g>
<g filter="url(#filter7_d_3_58)">
<ellipse cx="1175" cy="352.5" rx="21" ry="20.5" fill="#DEF2F1"/>
</g>
<g filter="url(#filter8_d_3_58)">
<ellipse cx="1280" cy="352.5" rx="21" ry="20.5" fill="#DEF2F1"/>
</g>
<g filter="url(#filter9_d_3_58)">
<ellipse cx="1175" cy="228.5" rx="21" ry="20.5" fill="#DEF2F1"/>
</g>
<g filter="url(#filter10_d_3_58)">
<ellipse cx="979" cy="347.5" rx="21" ry="20.5" fill="#DEF2F1"/>
</g>
<g filter="url(#filter11_d_3_58)">
<ellipse cx="554" cy="66.5" rx="21" ry="20.5" fill="#DEF2F1"/>
</g>
<g filter="url(#filter12_d_3_58)">
<circle cx="554" cy="162" r="21" fill="#DEF2F1"/>
</g>
<g filter="url(#filter13_d_3_58)">
<ellipse cx="667" cy="111.5" rx="21" ry="20.5" fill="#DEF2F1"/>
</g>
<g filter="url(#filter14_d_3_58)">
<ellipse cx="259" cy="341.5" rx="21" ry="20.5" fill="#DEF2F1"/>
</g>
<g filter="url(#filter15_d_3_58)">
<ellipse cx="152" cy="393.5" rx="21" ry="20.5" fill="#DEF2F1"/>
</g>
<g filter="url(#filter16_d_3_58)">
<ellipse cx="152" cy="228.5" rx="21" ry="20.5" fill="#DEF2F1"/>
</g>
<path d="M534 162.5L513.82 151.27L514.185 174.361L534 162.5ZM439.032 166L516.034 164.784L515.971 160.784L438.968 162L439.032 166Z" fill="#2B7A78"/>
<path d="M575 63H667" stroke="#2B7A78" stroke-width="4"/>
<path d="M666 131.5L677.547 151.5H654.453L666 131.5ZM664 164V149.5H668V164H664Z" fill="#2B7A78"/>
<path d="M574 162H666" stroke="#2B7A78" stroke-width="4"/>
<path d="M774.5 111.5H776.5V109.5H774.5V111.5ZM774.5 208L786.047 188H762.953L774.5 208ZM690 113.5H774.5V109.5H690V113.5ZM772.5 111.5V190H776.5V111.5H772.5Z" fill="#2B7A78"/>
<path d="M554 193H552V195H554V193ZM729 193L730.236 191.427L729.692 191H729V193ZM757 215L748.408 193.564L734.14 211.723L757 215ZM552 182.5V193H556V182.5H552ZM554 195H729V191H554V195ZM727.764 194.573L741.611 205.452L744.082 202.307L730.236 191.427L727.764 194.573Z" fill="#2B7A78"/>
<path d="M553 2V0H551V2H553ZM709.148 2L710.264 0.339857L709.758 0H709.148V2ZM775 46.2404H777V45.1746L776.115 44.5802L775 46.2404ZM775 109L786.547 89H763.453L775 109ZM555 46.2404V2H551V46.2404H555ZM708.033 3.66014L773.885 47.9005L776.115 44.5802L710.264 0.339857L708.033 3.66014ZM773 46.2404V91H777V46.2404H773ZM553 4H588V0H553V4ZM588 4H709.148V0H588V4Z" fill="#2B7A78"/>
<path d="M874.5 228L854.5 216.453V239.547L874.5 228ZM797 230H856.5V226H797V230Z" fill="#2B7A78"/>
<path d="M1154 228L1134 216.453V239.547L1154 228ZM1074 230L1136 230V226L1074 226V230Z" fill="#2B7A78"/>
<path d="M1154 119L1134 107.453V130.547L1154 119ZM1099 121L1136 121V117L1099 117V121Z" fill="#2B7A78"/>
<path d="M1155 352L1135 340.453V363.547L1155 352ZM1099 354H1137V350H1099V354Z" fill="#2B7A78"/>
<path d="M1259 353L1239 341.453V364.547L1259 353ZM1196 355H1241V351H1196V355Z" fill="#2B7A78"/>
<path d="M1032 228L1012 216.453V239.547L1032 228ZM918 230H1014V226H918V230Z" fill="#2B7A78"/>
<path d="M896 345.5H894V347.5H896V345.5ZM958.5 345.5L938.5 333.953V357.047L958.5 345.5ZM894 250.5V345.5H898V250.5H894ZM896 347.5H940.5V343.5H896V347.5Z" fill="#2B7A78"/>
<defs>
<filter id="filter0_d_3_58" x="5" y="208" width="50" height="49" filterUnits="userSpaceOnUse" color-interpolation-filters="sRGB">
<feFlood flood-opacity="0" result="BackgroundImageFix"/>
<feColorMatrix in="SourceAlpha" type="matrix" values="0 0 0 0 0 0 0 0 0 0 0 0 0 0 0 0 0 0 127 0" result="hardAlpha"/>
<feOffset dy="4"/>
<feGaussianBlur stdDeviation="2"/>
<feComposite in2="hardAlpha" operator="out"/>
<feColorMatrix type="matrix" values="0 0 0 0 0 0 0 0 0 0 0 0 0 0 0 0 0 0 0.25 0"/>
<feBlend mode="normal" in2="BackgroundImageFix" result="effect1_dropShadow_3_58"/>
<feBlend mode="normal" in="SourceGraphic" in2="effect1_dropShadow_3_58" result="shape"/>
</filter>
<filter id="filter1_d_3_58" x="234" y="419" width="50" height="49" filterUnits="userSpaceOnUse" color-interpolation-filters="sRGB">
<feFlood flood-opacity="0" result="BackgroundImageFix"/>
<feColorMatrix in="SourceAlpha" type="matrix" values="0 0 0 0 0 0 0 0 0 0 0 0 0 0 0 0 0 0 127 0" result="hardAlpha"/>
<feOffset dy="4"/>
<feGaussianBlur stdDeviation="2"/>
<feComposite in2="hardAlpha" operator="out"/>
<feColorMatrix type="matrix" values="0 0 0 0 0 0 0 0 0 0 0 0 0 0 0 0 0 0 0.25 0"/>
<feBlend mode="normal" in2="BackgroundImageFix" result="effect1_dropShadow_3_58"/>
<feBlend mode="normal" in="SourceGraphic" in2="effect1_dropShadow_3_58" result="shape"/>
</filter>
<filter id="filter2_d_3_58" x="393" y="208" width="50" height="49" filterUnits="userSpaceOnUse" color-interpolation-filters="sRGB">
<feFlood flood-opacity="0" result="BackgroundImageFix"/>
<feColorMatrix in="SourceAlpha" type="matrix" values="0 0 0 0 0 0 0 0 0 0 0 0 0 0 0 0 0 0 127 0" result="hardAlpha"/>
<feOffset dy="4"/>
<feGaussianBlur stdDeviation="2"/>
<feComposite in2="hardAlpha" operator="out"/>
<feColorMatrix type="matrix" values="0 0 0 0 0 0 0 0 0 0 0 0 0 0 0 0 0 0 0.25 0"/>
<feBlend mode="normal" in2="BackgroundImageFix" result="effect1_dropShadow_3_58"/>
<feBlend mode="normal" in="SourceGraphic" in2="effect1_dropShadow_3_58" result="shape"/>
</filter>
<filter id="filter3_d_3_58" x="750" y="208" width="50" height="49" filterUnits="userSpaceOnUse" color-interpolation-filters="sRGB">
<feFlood flood-opacity="0" result="BackgroundImageFix"/>
<feColorMatrix in="SourceAlpha" type="matrix" values="0 0 0 0 0 0 0 0 0 0 0 0 0 0 0 0 0 0 127 0" result="hardAlpha"/>
<feOffset dy="4"/>
<feGaussianBlur stdDeviation="2"/>
<feComposite in2="hardAlpha" operator="out"/>
<feColorMatrix type="matrix" values="0 0 0 0 0 0 0 0 0 0 0 0 0 0 0 0 0 0 0.25 0"/>
<feBlend mode="normal" in2="BackgroundImageFix" result="effect1_dropShadow_3_58"/>
<feBlend mode="normal" in="SourceGraphic" in2="effect1_dropShadow_3_58" result="shape"/>
</filter>
<filter id="filter4_d_3_58" x="872" y="208" width="50" height="49" filterUnits="userSpaceOnUse" color-interpolation-filters="sRGB">
<feFlood flood-opacity="0" result="BackgroundImageFix"/>
<feColorMatrix in="SourceAlpha" type="matrix" values="0 0 0 0 0 0 0 0 0 0 0 0 0 0 0 0 0 0 127 0" result="hardAlpha"/>
<feOffset dy="4"/>
<feGaussianBlur stdDeviation="2"/>
<feComposite in2="hardAlpha" operator="out"/>
<feColorMatrix type="matrix" values="0 0 0 0 0 0 0 0 0 0 0 0 0 0 0 0 0 0 0.25 0"/>
<feBlend mode="normal" in2="BackgroundImageFix" result="effect1_dropShadow_3_58"/>
<feBlend mode="normal" in="SourceGraphic" in2="effect1_dropShadow_3_58" result="shape"/>
</filter>
<filter id="filter5_d_3_58" x="1028" y="208" width="50" height="49" filterUnits="userSpaceOnUse" color-interpolation-filters="sRGB">
<feFlood flood-opacity="0" result="BackgroundImageFix"/>
<feColorMatrix in="SourceAlpha" type="matrix" values="0 0 0 0 0 0 0 0 0 0 0 0 0 0 0 0 0 0 127 0" result="hardAlpha"/>
<feOffset dy="4"/>
<feGaussianBlur stdDeviation="2"/>
<feComposite in2="hardAlpha" operator="out"/>
<feColorMatrix type="matrix" values="0 0 0 0 0 0 0 0 0 0 0 0 0 0 0 0 0 0 0.25 0"/>
<feBlend mode="normal" in2="BackgroundImageFix" result="effect1_dropShadow_3_58"/>
<feBlend mode="normal" in="SourceGraphic" in2="effect1_dropShadow_3_58" result="shape"/>
</filter>
<filter id="filter6_d_3_58" x="1150" y="99" width="50" height="49" filterUnits="userSpaceOnUse" color-interpolation-filters="sRGB">
<feFlood flood-opacity="0" result="BackgroundImageFix"/>
<feColorMatrix in="SourceAlpha" type="matrix" values="0 0 0 0 0 0 0 0 0 0 0 0 0 0 0 0 0 0 127 0" result="hardAlpha"/>
<feOffset dy="4"/>
<feGaussianBlur stdDeviation="2"/>
<feComposite in2="hardAlpha" operator="out"/>
<feColorMatrix type="matrix" values="0 0 0 0 0 0 0 0 0 0 0 0 0 0 0 0 0 0 0.25 0"/>
<feBlend mode="normal" in2="BackgroundImageFix" result="effect1_dropShadow_3_58"/>
<feBlend mode="normal" in="SourceGraphic" in2="effect1_dropShadow_3_58" result="shape"/>
</filter>
<filter id="filter7_d_3_58" x="1150" y="332" width="50" height="49" filterUnits="userSpaceOnUse" color-interpolation-filters="sRGB">
<feFlood flood-opacity="0" result="BackgroundImageFix"/>
<feColorMatrix in="SourceAlpha" type="matrix" values="0 0 0 0 0 0 0 0 0 0 0 0 0 0 0 0 0 0 127 0" result="hardAlpha"/>
<feOffset dy="4"/>
<feGaussianBlur stdDeviation="2"/>
<feComposite in2="hardAlpha" operator="out"/>
<feColorMatrix type="matrix" values="0 0 0 0 0 0 0 0 0 0 0 0 0 0 0 0 0 0 0.25 0"/>
<feBlend mode="normal" in2="BackgroundImageFix" result="effect1_dropShadow_3_58"/>
<feBlend mode="normal" in="SourceGraphic" in2="effect1_dropShadow_3_58" result="shape"/>
</filter>
<filter id="filter8_d_3_58" x="1255" y="332" width="50" height="49" filterUnits="userSpaceOnUse" color-interpolation-filters="sRGB">
<feFlood flood-opacity="0" result="BackgroundImageFix"/>
<feColorMatrix in="SourceAlpha" type="matrix" values="0 0 0 0 0 0 0 0 0 0 0 0 0 0 0 0 0 0 127 0" result="hardAlpha"/>
<feOffset dy="4"/>
<feGaussianBlur stdDeviation="2"/>
<feComposite in2="hardAlpha" operator="out"/>
<feColorMatrix type="matrix" values="0 0 0 0 0 0 0 0 0 0 0 0 0 0 0 0 0 0 0.25 0"/>
<feBlend mode="normal" in2="BackgroundImageFix" result="effect1_dropShadow_3_58"/>
<feBlend mode="normal" in="SourceGraphic" in2="effect1_dropShadow_3_58" result="shape"/>
</filter>
<filter id="filter9_d_3_58" x="1150" y="208" width="50" height="49" filterUnits="userSpaceOnUse" color-interpolation-filters="sRGB">
<feFlood flood-opacity="0" result="BackgroundImageFix"/>
<feColorMatrix in="SourceAlpha" type="matrix" values="0 0 0 0 0 0 0 0 0 0 0 0 0 0 0 0 0 0 127 0" result="hardAlpha"/>
<feOffset dy="4"/>
<feGaussianBlur stdDeviation="2"/>
<feComposite in2="hardAlpha" operator="out"/>
<feColorMatrix type="matrix" values="0 0 0 0 0 0 0 0 0 0 0 0 0 0 0 0 0 0 0.25 0"/>
<feBlend mode="normal" in2="BackgroundImageFix" result="effect1_dropShadow_3_58"/>
<feBlend mode="normal" in="SourceGraphic" in2="effect1_dropShadow_3_58" result="shape"/>
</filter>
<filter id="filter10_d_3_58" x="954" y="327" width="50" height="49" filterUnits="userSpaceOnUse" color-interpolation-filters="sRGB">
<feFlood flood-opacity="0" result="BackgroundImageFix"/>
<feColorMatrix in="SourceAlpha" type="matrix" values="0 0 0 0 0 0 0 0 0 0 0 0 0 0 0 0 0 0 127 0" result="hardAlpha"/>
<feOffset dy="4"/>
<feGaussianBlur stdDeviation="2"/>
<feComposite in2="hardAlpha" operator="out"/>
<feColorMatrix type="matrix" values="0 0 0 0 0 0 0 0 0 0 0 0 0 0 0 0 0 0 0.25 0"/>
<feBlend mode="normal" in2="BackgroundImageFix" result="effect1_dropShadow_3_58"/>
<feBlend mode="normal" in="SourceGraphic" in2="effect1_dropShadow_3_58" result="shape"/>
</filter>
<filter id="filter11_d_3_58" x="529" y="46" width="50" height="49" filterUnits="userSpaceOnUse" color-interpolation-filters="sRGB">
<feFlood flood-opacity="0" result="BackgroundImageFix"/>
<feColorMatrix in="SourceAlpha" type="matrix" values="0 0 0 0 0 0 0 0 0 0 0 0 0 0 0 0 0 0 127 0" result="hardAlpha"/>
<feOffset dy="4"/>
<feGaussianBlur stdDeviation="2"/>
<feComposite in2="hardAlpha" operator="out"/>
<feColorMatrix type="matrix" values="0 0 0 0 0 0 0 0 0 0 0 0 0 0 0 0 0 0 0.25 0"/>
<feBlend mode="normal" in2="BackgroundImageFix" result="effect1_dropShadow_3_58"/>
<feBlend mode="normal" in="SourceGraphic" in2="effect1_dropShadow_3_58" result="shape"/>
</filter>
<filter id="filter12_d_3_58" x="529" y="141" width="50" height="50" filterUnits="userSpaceOnUse" color-interpolation-filters="sRGB">
<feFlood flood-opacity="0" result="BackgroundImageFix"/>
<feColorMatrix in="SourceAlpha" type="matrix" values="0 0 0 0 0 0 0 0 0 0 0 0 0 0 0 0 0 0 127 0" result="hardAlpha"/>
<feOffset dy="4"/>
<feGaussianBlur stdDeviation="2"/>
<feComposite in2="hardAlpha" operator="out"/>
<feColorMatrix type="matrix" values="0 0 0 0 0 0 0 0 0 0 0 0 0 0 0 0 0 0 0.25 0"/>
<feBlend mode="normal" in2="BackgroundImageFix" result="effect1_dropShadow_3_58"/>
<feBlend mode="normal" in="SourceGraphic" in2="effect1_dropShadow_3_58" result="shape"/>
</filter>
<filter id="filter13_d_3_58" x="642" y="91" width="50" height="49" filterUnits="userSpaceOnUse" color-interpolation-filters="sRGB">
<feFlood flood-opacity="0" result="BackgroundImageFix"/>
<feColorMatrix in="SourceAlpha" type="matrix" values="0 0 0 0 0 0 0 0 0 0 0 0 0 0 0 0 0 0 127 0" result="hardAlpha"/>
<feOffset dy="4"/>
<feGaussianBlur stdDeviation="2"/>
<feComposite in2="hardAlpha" operator="out"/>
<feColorMatrix type="matrix" values="0 0 0 0 0 0 0 0 0 0 0 0 0 0 0 0 0 0 0.25 0"/>
<feBlend mode="normal" in2="BackgroundImageFix" result="effect1_dropShadow_3_58"/>
<feBlend mode="normal" in="SourceGraphic" in2="effect1_dropShadow_3_58" result="shape"/>
</filter>
<filter id="filter14_d_3_58" x="234" y="321" width="50" height="49" filterUnits="userSpaceOnUse" color-interpolation-filters="sRGB">
<feFlood flood-opacity="0" result="BackgroundImageFix"/>
<feColorMatrix in="SourceAlpha" type="matrix" values="0 0 0 0 0 0 0 0 0 0 0 0 0 0 0 0 0 0 127 0" result="hardAlpha"/>
<feOffset dy="4"/>
<feGaussianBlur stdDeviation="2"/>
<feComposite in2="hardAlpha" operator="out"/>
<feColorMatrix type="matrix" values="0 0 0 0 0 0 0 0 0 0 0 0 0 0 0 0 0 0 0.25 0"/>
<feBlend mode="normal" in2="BackgroundImageFix" result="effect1_dropShadow_3_58"/>
<feBlend mode="normal" in="SourceGraphic" in2="effect1_dropShadow_3_58" result="shape"/>
</filter>
<filter id="filter15_d_3_58" x="127" y="373" width="50" height="49" filterUnits="userSpaceOnUse" color-interpolation-filters="sRGB">
<feFlood flood-opacity="0" result="BackgroundImageFix"/>
<feColorMatrix in="SourceAlpha" type="matrix" values="0 0 0 0 0 0 0 0 0 0 0 0 0 0 0 0 0 0 127 0" result="hardAlpha"/>
<feOffset dy="4"/>
<feGaussianBlur stdDeviation="2"/>
<feComposite in2="hardAlpha" operator="out"/>
<feColorMatrix type="matrix" values="0 0 0 0 0 0 0 0 0 0 0 0 0 0 0 0 0 0 0.25 0"/>
<feBlend mode="normal" in2="BackgroundImageFix" result="effect1_dropShadow_3_58"/>
<feBlend mode="normal" in="SourceGraphic" in2="effect1_dropShadow_3_58" result="shape"/>
</filter>
<filter id="filter16_d_3_58" x="127" y="208" width="50" height="49" filterUnits="userSpaceOnUse" color-interpolation-filters="sRGB">
<feFlood flood-opacity="0" result="BackgroundImageFix"/>
<feColorMatrix in="SourceAlpha" type="matrix" values="0 0 0 0 0 0 0 0 0 0 0 0 0 0 0 0 0 0 127 0" result="hardAlpha"/>
<feOffset dy="4"/>
<feGaussianBlur stdDeviation="2"/>
<feComposite in2="hardAlpha" operator="out"/>
<feColorMatrix type="matrix" values="0 0 0 0 0 0 0 0 0 0 0 0 0 0 0 0 0 0 0.25 0"/>
<feBlend mode="normal" in2="BackgroundImageFix" result="effect1_dropShadow_3_58"/>
<feBlend mode="normal" in="SourceGraphic" in2="effect1_dropShadow_3_58" result="shape"/>
</filter>
</defs>
</svg>
